<svg
  viewBox="0 0 20 20"
  fill="none"
  xmlns="http://www.w3.org/2000/svg"
>
  <!-- чуть уменьшаем рисунок и отодвигаем от краёв -->
  <g transform="translate(1 1) scale(1)">
    <path
      d="M7.63411 9.05829C7.55078 9.04996 7.45078 9.04996 7.35911 9.05829C5.37578 8.99163 3.80078 7.36663 3.80078 5.36663C3.80078 3.32496 5.45078 1.66663 7.50078 1.66663C9.54245 1.66663 11.2008 3.32496 11.2008 5.36663C11.1924 7.36663 9.61745 8.99163 7.63411 9.05829Z"
      stroke="white"
      stroke-width="1.5"
      stroke-linecap="round"
      stroke-linejoin="round"
    />
    <path
      d="M13.6747 3.33337C15.2914 3.33337 16.5914 4.64171 16.5914 6.25004C16.5914 7.82504 15.3414 9.10837 13.7831 9.16671C13.7164 9.15837 13.6414 9.15837 13.5664 9.16671"
      stroke="white"
      stroke-width="1.5"
      stroke-linecap="round"
      stroke-linejoin="round"
    />
    <path
      d="M3.46758 12.1334C1.45091 13.4834 1.45091 15.6834 3.46758 17.025C5.75924 18.5584 9.51758 18.5584 11.8092 17.025C13.8259 15.675 13.8259 13.475 11.8092 12.1334C9.52591 10.6084 5.76758 10.6084 3.46758 12.1334Z"
      stroke="white"
      stroke-width="1.5"
      stroke-linecap="round"
      stroke-linejoin="round"
    />
    <path
      d="M15.2832 16.6666C15.8832 16.5416 16.4499 16.3 16.9165 15.9416C18.2165 14.9666 18.2165 13.3583 16.9165 12.3833C16.4582 12.0333 15.8999 11.8 15.3082 11.6666"
      stroke="white"
      stroke-width="1.5"
      stroke-linecap="round"
      stroke-linejoin="round"
    />
  </g>
</svg>