<svg width="311" height="346" viewBox="0 0 311 346" fill="none" xmlns="http://www.w3.org/2000/svg">
<rect width="311" height="346" rx="32" fill="black"/>
<path d="M39.9463 33.2783C47.2477 33.2816 51.9009 39.9757 51.9326 40.0215C51.9326 40.0215 47.2728 46.6823 39.9463 46.6855C32.6197 46.6887 28 40.0215 28 40.0215C28.0323 39.9745 32.6454 33.2752 39.9463 33.2783ZM39.9658 35.667C37.5254 35.6672 35.5469 37.6464 35.5469 40.0869C35.5471 42.5272 37.5255 44.5056 39.9658 44.5059C42.4063 44.5059 44.3855 42.5273 44.3857 40.0869C44.3857 37.6463 42.4064 35.667 39.9658 35.667Z" fill="white"/>
<path d="M41.3214 35.967C41.3731 37.6203 42.7298 38.9448 44.3957 38.9448C42.697 38.9448 41.32 40.3218 41.32 42.0205C41.32 42.0364 41.3203 42.0523 41.3205 42.0682L41.32 42.0686L41.3196 42.0682C41.3198 42.0551 41.32 42.042 41.32 42.029V42.0119L41.3158 41.8541C41.2294 40.2328 39.8872 38.9448 38.2444 38.9448C39.9103 38.9448 41.267 37.6204 41.3186 35.967L41.32 35.9651L41.3214 35.967Z" fill="white"/>
<path d="M151.568 140.227C210.181 140.252 247.461 194.175 247.461 194.175C247.461 194.175 210.181 247.456 151.568 247.481C92.9665 247.506 56.0133 194.194 56 194.175C56 194.175 92.956 140.202 151.568 140.227ZM151.729 159.339C132.205 159.339 116.377 175.168 116.377 194.692C116.377 214.217 132.205 230.045 151.729 230.045C171.254 230.045 187.083 214.217 187.083 194.692C187.083 175.167 171.254 159.339 151.729 159.339Z" fill="white"/>
<path d="M162.571 161.736C162.984 174.963 173.837 185.558 187.164 185.558C173.575 185.558 162.559 196.574 162.559 210.163C162.559 210.291 162.561 210.418 162.563 210.545L162.559 210.549L162.555 210.545C162.557 210.441 162.559 210.336 162.559 210.231V210.095L162.525 208.833C161.834 195.862 151.097 185.558 137.954 185.558C151.281 185.558 162.135 174.963 162.548 161.736L162.559 161.72L162.571 161.736Z" fill="white"/>
</svg>
