<svg width="180" height="32" viewBox="0 0 180 32" fill="none" xmlns="http://www.w3.org/2000/svg">
<g clip-path="url(#clip0_630_18407)">
<path d="M24.6895 2.14594C39.8072 2.15263 49.4316 16.0386 49.4619 16.0825C49.4619 16.0825 39.8311 29.8472 24.6895 29.8539C9.54758 29.8604 0 16.0825 0 16.0825C0.046251 16.015 9.58436 2.1395 24.6895 2.14594ZM24.7305 7.08344C19.6865 7.08356 15.5977 11.1723 15.5977 16.2162C15.5977 21.2602 19.6865 25.3489 24.7305 25.3491C29.7745 25.3491 33.8633 21.2603 33.8633 16.2162C33.8633 11.1722 29.7745 7.08344 24.7305 7.08344Z" fill="white"/>
<path d="M27.531 7.70258C27.6377 11.1196 30.4416 13.8569 33.8845 13.8569C30.374 13.8569 27.5281 16.7028 27.5281 20.2133C27.5281 20.2462 27.5286 20.2792 27.5291 20.312L27.5281 20.3129L27.5271 20.312C27.5275 20.285 27.528 20.2579 27.5281 20.2309V20.1957L27.5193 19.8696C27.3407 16.5188 24.5669 13.8569 21.1716 13.8569C24.6146 13.8569 27.4184 11.1196 27.5252 7.70258L27.5281 7.69867L27.531 7.70258Z" fill="white"/>
<path d="M173.339 24.8921V15.1241H170.555V12.3881H173.339V11.1881C173.339 9.78006 173.747 8.70806 174.563 7.97205C175.379 7.22006 176.555 6.84406 178.091 6.84406C178.427 6.84406 178.771 6.86005 179.123 6.89205C179.475 6.92406 179.779 6.98006 180.035 7.06006V9.82006C179.731 9.75606 179.467 9.70806 179.243 9.67606C179.019 9.64406 178.771 9.62806 178.499 9.62806C177.875 9.62806 177.403 9.76406 177.083 10.0361C176.779 10.2921 176.627 10.7001 176.627 11.2601V12.3881H180.035V15.1241H176.627V24.8921H173.339Z" fill="white"/>
<path d="M164.067 25.132C162.819 25.132 161.683 24.844 160.659 24.268C159.651 23.692 158.851 22.916 158.259 21.94C157.667 20.964 157.371 19.868 157.371 18.652C157.371 17.436 157.651 16.34 158.211 15.364C158.787 14.388 159.563 13.612 160.539 13.036C161.515 12.46 162.603 12.172 163.803 12.172C165.003 12.172 166.067 12.468 166.995 13.06C167.923 13.652 168.651 14.452 169.179 15.46C169.723 16.468 169.995 17.612 169.995 18.892V19.756H160.731C160.875 20.252 161.107 20.7 161.427 21.1C161.763 21.5 162.171 21.812 162.651 22.036C163.147 22.26 163.675 22.372 164.235 22.372C164.795 22.372 165.307 22.284 165.771 22.108C166.251 21.932 166.659 21.684 166.995 21.364L169.155 23.332C168.387 23.956 167.595 24.412 166.779 24.7C165.979 24.988 165.075 25.132 164.067 25.132ZM160.683 17.404H166.755C166.643 16.908 166.435 16.476 166.131 16.108C165.843 15.724 165.491 15.428 165.075 15.22C164.675 14.996 164.227 14.884 163.731 14.884C163.219 14.884 162.755 14.988 162.339 15.196C161.923 15.404 161.571 15.7 161.283 16.084C161.011 16.452 160.811 16.892 160.683 17.404Z" fill="white"/>
<path d="M152.328 24.892V12.388H155.616V24.892H152.328ZM153.96 10.9C153.448 10.9 153.008 10.716 152.64 10.348C152.272 9.98002 152.088 9.54002 152.088 9.02802C152.088 8.50002 152.272 8.06002 152.64 7.70802C153.008 7.34002 153.448 7.15602 153.96 7.15602C154.488 7.15602 154.928 7.34002 155.28 7.70802C155.648 8.06002 155.832 8.50002 155.832 9.02802C155.832 9.54002 155.648 9.98002 155.28 10.348C154.928 10.716 154.488 10.9 153.96 10.9Z" fill="white"/>
<path d="M138.342 24.8921V8.09213L141.63 7.37213V13.4201C142.574 12.5721 143.742 12.1481 145.134 12.1481C146.11 12.1481 146.966 12.3641 147.702 12.7961C148.454 13.2121 149.038 13.7961 149.454 14.5481C149.87 15.2841 150.078 16.1481 150.078 17.1401V24.8921H146.79V17.6201C146.79 16.8041 146.558 16.1641 146.094 15.7001C145.63 15.2201 144.998 14.9801 144.198 14.9801C143.638 14.9801 143.142 15.0921 142.71 15.3161C142.278 15.5241 141.918 15.8281 141.63 16.2281V24.8921H138.342Z" fill="white"/>
<path d="M129.85 25.1319C128.602 25.1319 127.434 24.9159 126.346 24.4839C125.258 24.0359 124.306 23.4199 123.49 22.6359C122.69 21.8519 122.058 20.9399 121.594 19.8999C121.146 18.8439 120.922 17.7079 120.922 16.4919C120.922 15.2599 121.146 14.1239 121.594 13.0839C122.058 12.0279 122.698 11.1079 123.514 10.3239C124.33 9.53994 125.274 8.93194 126.346 8.49994C127.434 8.05194 128.602 7.82794 129.85 7.82794C130.778 7.82794 131.674 7.95594 132.538 8.21194C133.402 8.46794 134.202 8.82794 134.938 9.29194C135.69 9.75594 136.33 10.3159 136.858 10.9719L134.506 13.2999C133.898 12.5479 133.194 11.9799 132.394 11.5959C131.61 11.2119 130.762 11.0199 129.85 11.0199C129.098 11.0199 128.394 11.1639 127.738 11.4519C127.082 11.7239 126.514 12.1079 126.034 12.6039C125.554 13.0839 125.178 13.6599 124.906 14.3319C124.634 14.9879 124.498 15.7079 124.498 16.4919C124.498 17.2599 124.634 17.9799 124.906 18.6519C125.178 19.3079 125.562 19.8839 126.058 20.3799C126.554 20.8599 127.13 21.2359 127.786 21.5079C128.458 21.7799 129.186 21.9159 129.97 21.9159C130.85 21.9159 131.674 21.7319 132.442 21.3639C133.21 20.9959 133.89 20.4679 134.482 19.7799L136.762 22.0359C136.234 22.6759 135.602 23.2279 134.866 23.6919C134.13 24.1559 133.33 24.5159 132.466 24.7719C131.618 25.0119 130.746 25.1319 129.85 25.1319Z" fill="white"/>
<path d="M105.432 24.892L102 12.388H105.12L107.184 20.452L109.68 12.388H112.44L114.912 20.476L116.976 12.388H120.048L116.592 24.892H113.448L111.024 16.9L108.6 24.892H105.432Z" fill="white"/>
<path d="M94.8361 25.132C93.5881 25.132 92.4601 24.844 91.4521 24.268C90.4441 23.692 89.6441 22.916 89.0521 21.94C88.4601 20.964 88.1641 19.868 88.1641 18.652C88.1641 17.436 88.4521 16.34 89.0281 15.364C89.6201 14.372 90.4201 13.588 91.4281 13.012C92.4521 12.436 93.5881 12.148 94.8361 12.148C96.0841 12.148 97.2121 12.436 98.2201 13.012C99.2441 13.588 100.044 14.372 100.62 15.364C101.212 16.34 101.508 17.436 101.508 18.652C101.508 19.868 101.212 20.964 100.62 21.94C100.044 22.916 99.2521 23.692 98.2441 24.268C97.2361 24.844 96.1001 25.132 94.8361 25.132ZM94.8361 22.276C95.4921 22.276 96.0761 22.116 96.5881 21.796C97.1161 21.476 97.5321 21.044 97.8361 20.5C98.1561 19.94 98.3161 19.324 98.3161 18.652C98.3161 17.964 98.1561 17.348 97.8361 16.804C97.5321 16.26 97.1161 15.828 96.5881 15.508C96.0761 15.172 95.4921 15.004 94.8361 15.004C94.1961 15.004 93.6121 15.172 93.0841 15.508C92.5561 15.828 92.1401 16.26 91.8361 16.804C91.5321 17.348 91.3801 17.964 91.3801 18.652C91.3801 19.324 91.5321 19.94 91.8361 20.5C92.1401 21.044 92.5561 21.476 93.0841 21.796C93.6121 22.116 94.1961 22.276 94.8361 22.276Z" fill="white"/>
<path d="M79.6758 24.8919V12.3879H82.9638V13.7799C83.3638 13.2359 83.8438 12.8199 84.4038 12.5319C84.9638 12.2439 85.5958 12.0999 86.2998 12.0999C86.9078 12.1159 87.3638 12.2119 87.6678 12.3879V15.2679C87.4278 15.1559 87.1638 15.0759 86.8758 15.0279C86.5878 14.9639 86.2918 14.9319 85.9878 14.9319C85.3478 14.9319 84.7638 15.0919 84.2358 15.4119C83.7078 15.7319 83.2838 16.1879 82.9638 16.7799V24.8919H79.6758Z" fill="white"/>
<path d="M69.3337 25.1559C68.0857 25.1559 66.9257 24.9399 65.8537 24.5079C64.7817 24.0599 63.8377 23.4439 63.0217 22.6599C62.2057 21.8599 61.5657 20.9399 61.1017 19.8999C60.6537 18.8439 60.4297 17.7079 60.4297 16.4919C60.4297 15.2759 60.6537 14.1479 61.1017 13.1079C61.5657 12.0519 62.1977 11.1319 62.9977 10.3479C63.7977 9.54794 64.7337 8.93194 65.8057 8.49994C66.8937 8.05194 68.0537 7.82794 69.2857 7.82794C70.6777 7.82794 71.9897 8.10794 73.2217 8.66794C74.4537 9.21194 75.4697 9.97994 76.2697 10.9719L73.8457 13.2039C73.2697 12.4839 72.5897 11.9399 71.8057 11.5719C71.0217 11.2039 70.1817 11.0199 69.2857 11.0199C68.5337 11.0199 67.8377 11.1639 67.1977 11.4519C66.5577 11.7239 65.9977 12.1079 65.5177 12.6039C65.0377 13.0839 64.6617 13.6599 64.3897 14.3319C64.1337 14.9879 64.0057 15.7079 64.0057 16.4919C64.0057 17.2759 64.1417 18.0039 64.4137 18.6759C64.6857 19.3479 65.0617 19.9319 65.5417 20.4279C66.0377 20.9079 66.6057 21.2919 67.2457 21.5799C67.9017 21.8519 68.6137 21.9879 69.3817 21.9879C70.1817 21.9879 70.9017 21.8439 71.5417 21.5559C72.1817 21.2519 72.7177 20.8359 73.1497 20.3079C73.5977 19.7639 73.8937 19.1559 74.0377 18.4839H69.0697V15.4599H77.7577V16.5159C77.7577 17.7639 77.5417 18.9159 77.1097 19.9719C76.6937 21.0119 76.1097 21.9239 75.3577 22.7079C74.6057 23.4759 73.7177 24.0759 72.6937 24.5079C71.6697 24.9399 70.5497 25.1559 69.3337 25.1559Z" fill="white"/>
</g>
<defs>
<clipPath id="clip0_630_18407">
<rect width="180" height="32" fill="white"/>
</clipPath>
</defs>
</svg>
