<svg width="181" height="28" viewBox="0 0 181 28" fill="none" xmlns="http://www.w3.org/2000/svg">
<g clip-path="url(#clip0_630_18532)">
<path d="M24.6895 2.24149e-06C39.8072 0.00669232 49.4316 13.8927 49.4619 13.9365C49.4619 13.9365 39.8311 27.7013 24.6895 27.708C9.54758 27.7145 0 13.9365 0 13.9365C0.046251 13.8691 9.58436 -0.00643841 24.6895 2.24149e-06ZM24.7305 4.9375C19.6865 4.93763 15.5977 9.02635 15.5977 14.0703C15.5977 19.1143 19.6865 23.203 24.7305 23.2031C29.7745 23.2031 33.8633 19.1143 33.8633 14.0703C33.8633 9.02627 29.7745 4.9375 24.7305 4.9375Z" fill="white"/>
<path d="M27.531 5.55664C27.6377 8.97367 30.4416 11.7109 33.8845 11.7109C30.374 11.711 27.5281 14.5568 27.5281 18.0674C27.5281 18.1003 27.5286 18.1332 27.5291 18.166L27.5281 18.167L27.5271 18.166C27.5275 18.1391 27.528 18.112 27.5281 18.085V18.0498L27.5193 17.7236C27.3407 14.3729 24.5669 11.7109 21.1716 11.7109C24.6146 11.7109 27.4184 8.97367 27.5251 5.55664L27.5281 5.55273L27.531 5.55664Z" fill="white"/>
<path d="M173.339 22.746V12.978H170.555V10.242H173.339V9.042C173.339 7.634 173.747 6.562 174.563 5.826C175.379 5.074 176.555 4.698 178.091 4.698C178.427 4.698 178.771 4.714 179.123 4.746C179.475 4.778 179.779 4.834 180.035 4.914V7.674C179.731 7.61 179.467 7.562 179.243 7.53C179.019 7.498 178.771 7.482 178.499 7.482C177.875 7.482 177.403 7.618 177.083 7.89C176.779 8.146 176.627 8.554 176.627 9.114V10.242H180.035V12.978H176.627V22.746H173.339Z" fill="white"/>
<path d="M164.067 22.986C162.819 22.986 161.683 22.698 160.659 22.122C159.651 21.546 158.851 20.77 158.259 19.794C157.667 18.818 157.371 17.722 157.371 16.506C157.371 15.29 157.651 14.194 158.211 13.218C158.787 12.242 159.563 11.466 160.539 10.89C161.515 10.314 162.603 10.026 163.803 10.026C165.003 10.026 166.067 10.322 166.995 10.914C167.923 11.506 168.651 12.306 169.179 13.314C169.723 14.322 169.995 15.466 169.995 16.746V17.61H160.731C160.875 18.106 161.107 18.554 161.427 18.954C161.763 19.354 162.171 19.666 162.651 19.89C163.147 20.114 163.675 20.226 164.235 20.226C164.795 20.226 165.307 20.138 165.771 19.962C166.251 19.786 166.659 19.538 166.995 19.218L169.155 21.186C168.387 21.81 167.595 22.266 166.779 22.554C165.979 22.842 165.075 22.986 164.067 22.986ZM160.683 15.258H166.755C166.643 14.762 166.435 14.33 166.131 13.962C165.843 13.578 165.491 13.282 165.075 13.074C164.675 12.85 164.227 12.738 163.731 12.738C163.219 12.738 162.755 12.842 162.339 13.05C161.923 13.258 161.571 13.554 161.283 13.938C161.011 14.306 160.811 14.746 160.683 15.258Z" fill="white"/>
<path d="M152.328 22.746V10.242H155.616V22.746H152.328ZM153.96 8.75396C153.448 8.75396 153.008 8.56996 152.64 8.20196C152.272 7.83396 152.088 7.39396 152.088 6.88196C152.088 6.35396 152.272 5.91396 152.64 5.56196C153.008 5.19396 153.448 5.00996 153.96 5.00996C154.488 5.00996 154.928 5.19396 155.28 5.56196C155.648 5.91396 155.832 6.35396 155.832 6.88196C155.832 7.39396 155.648 7.83396 155.28 8.20196C154.928 8.56996 154.488 8.75396 153.96 8.75396Z" fill="white"/>
<path d="M138.342 22.7461V5.94607L141.63 5.22607V11.2741C142.574 10.4261 143.742 10.0021 145.134 10.0021C146.11 10.0021 146.966 10.2181 147.702 10.6501C148.454 11.0661 149.038 11.6501 149.454 12.4021C149.87 13.1381 150.078 14.0021 150.078 14.9941V22.7461H146.79V15.4741C146.79 14.6581 146.558 14.0181 146.094 13.5541C145.63 13.0741 144.998 12.8341 144.198 12.8341C143.638 12.8341 143.142 12.9461 142.71 13.1701C142.278 13.3781 141.918 13.6821 141.63 14.0821V22.7461H138.342Z" fill="white"/>
<path d="M129.85 22.9859C128.602 22.9859 127.434 22.7699 126.346 22.3379C125.258 21.8899 124.306 21.2739 123.49 20.4899C122.69 19.7059 122.058 18.7939 121.594 17.7539C121.146 16.6979 120.922 15.5619 120.922 14.3459C120.922 13.1139 121.146 11.9779 121.594 10.9379C122.058 9.88188 122.698 8.96188 123.514 8.17788C124.33 7.39388 125.274 6.78588 126.346 6.35388C127.434 5.90588 128.602 5.68188 129.85 5.68188C130.778 5.68188 131.674 5.80988 132.538 6.06588C133.402 6.32188 134.202 6.68188 134.938 7.14588C135.69 7.60988 136.33 8.16988 136.858 8.82588L134.506 11.1539C133.898 10.4019 133.194 9.83388 132.394 9.44988C131.61 9.06589 130.762 8.87389 129.85 8.87389C129.098 8.87389 128.394 9.01788 127.738 9.30588C127.082 9.57788 126.514 9.96188 126.034 10.4579C125.554 10.9379 125.178 11.5139 124.906 12.1859C124.634 12.8419 124.498 13.5619 124.498 14.3459C124.498 15.1139 124.634 15.8339 124.906 16.5059C125.178 17.1619 125.562 17.7379 126.058 18.2339C126.554 18.7139 127.13 19.0899 127.786 19.3619C128.458 19.6339 129.186 19.7699 129.97 19.7699C130.85 19.7699 131.674 19.5859 132.442 19.2179C133.21 18.8499 133.89 18.3219 134.482 17.6339L136.762 19.8899C136.234 20.5299 135.602 21.0819 134.866 21.5459C134.13 22.0099 133.33 22.3699 132.466 22.6259C131.618 22.8659 130.746 22.9859 129.85 22.9859Z" fill="white"/>
<path d="M105.432 22.7459L102 10.2419H105.12L107.184 18.3059L109.68 10.2419H112.44L114.912 18.3299L116.976 10.2419H120.048L116.592 22.7459H113.448L111.024 14.7539L108.6 22.7459H105.432Z" fill="white"/>
<path d="M94.8361 22.986C93.5881 22.986 92.4601 22.698 91.4521 22.122C90.4441 21.546 89.6441 20.77 89.0521 19.794C88.4601 18.818 88.1641 17.722 88.1641 16.506C88.1641 15.29 88.4521 14.194 89.0281 13.218C89.6201 12.226 90.4201 11.442 91.4281 10.866C92.4521 10.29 93.5881 10.002 94.8361 10.002C96.0841 10.002 97.2121 10.29 98.2201 10.866C99.2441 11.442 100.044 12.226 100.62 13.218C101.212 14.194 101.508 15.29 101.508 16.506C101.508 17.722 101.212 18.818 100.62 19.794C100.044 20.77 99.2521 21.546 98.2441 22.122C97.2361 22.698 96.1001 22.986 94.8361 22.986ZM94.8361 20.13C95.4921 20.13 96.0761 19.97 96.5881 19.65C97.1161 19.33 97.5321 18.898 97.8361 18.354C98.1561 17.794 98.3161 17.178 98.3161 16.506C98.3161 15.818 98.1561 15.202 97.8361 14.658C97.5321 14.114 97.1161 13.682 96.5881 13.362C96.0761 13.026 95.4921 12.858 94.8361 12.858C94.1961 12.858 93.6121 13.026 93.0841 13.362C92.5561 13.682 92.1401 14.114 91.8361 14.658C91.5321 15.202 91.3801 15.818 91.3801 16.506C91.3801 17.178 91.5321 17.794 91.8361 18.354C92.1401 18.898 92.5561 19.33 93.0841 19.65C93.6121 19.97 94.1961 20.13 94.8361 20.13Z" fill="white"/>
<path d="M79.6758 22.7459V10.2419H82.9638V11.6339C83.3638 11.0899 83.8438 10.6739 84.4038 10.3859C84.9638 10.0979 85.5958 9.95386 86.2998 9.95386C86.9078 9.96986 87.3638 10.0659 87.6678 10.2419V13.1219C87.4278 13.0099 87.1638 12.9299 86.8758 12.8819C86.5878 12.8179 86.2918 12.7859 85.9878 12.7859C85.3478 12.7859 84.7638 12.9459 84.2358 13.2659C83.7078 13.5859 83.2838 14.0419 82.9638 14.6339V22.7459H79.6758Z" fill="white"/>
<path d="M69.3337 23.0099C68.0857 23.0099 66.9257 22.7939 65.8537 22.3619C64.7817 21.9139 63.8377 21.2979 63.0217 20.5139C62.2057 19.7139 61.5657 18.7939 61.1017 17.7539C60.6537 16.6979 60.4297 15.5619 60.4297 14.3459C60.4297 13.1299 60.6537 12.0019 61.1017 10.9619C61.5657 9.90588 62.1977 8.98588 62.9977 8.20189C63.7977 7.40189 64.7337 6.78588 65.8057 6.35388C66.8937 5.90588 68.0537 5.68188 69.2857 5.68188C70.6777 5.68188 71.9897 5.96188 73.2217 6.52188C74.4537 7.06588 75.4697 7.83388 76.2697 8.82588L73.8457 11.0579C73.2697 10.3379 72.5897 9.79389 71.8057 9.42589C71.0217 9.05789 70.1817 8.87389 69.2857 8.87389C68.5337 8.87389 67.8377 9.01788 67.1977 9.30588C66.5577 9.57788 65.9977 9.96188 65.5177 10.4579C65.0377 10.9379 64.6617 11.5139 64.3897 12.1859C64.1337 12.8419 64.0057 13.5619 64.0057 14.3459C64.0057 15.1299 64.1417 15.8579 64.4137 16.5299C64.6857 17.2019 65.0617 17.7859 65.5417 18.2819C66.0377 18.7619 66.6057 19.1459 67.2457 19.4339C67.9017 19.7059 68.6137 19.8419 69.3817 19.8419C70.1817 19.8419 70.9017 19.6979 71.5417 19.4099C72.1817 19.1059 72.7177 18.6899 73.1497 18.1619C73.5977 17.6179 73.8937 17.0099 74.0377 16.3379H69.0697V13.3139H77.7577V14.3699C77.7577 15.6179 77.5417 16.7699 77.1097 17.8259C76.6937 18.8659 76.1097 19.7779 75.3577 20.5619C74.6057 21.3299 73.7177 21.9299 72.6937 22.3619C71.6697 22.7939 70.5497 23.0099 69.3337 23.0099Z" fill="white"/>
</g>
<defs>
<clipPath id="clip0_630_18532">
<rect width="180.035" height="27.7081" fill="white"/>
</clipPath>
</defs>
</svg>
