<svg width="107" height="29" viewBox="0 0 107 29" fill="none" xmlns="http://www.w3.org/2000/svg">
<path d="M39.3423 19.6332C38.1333 19.6332 37.1965 19.3358 36.5335 18.7409C35.8706 18.1459 35.5391 17.2343 35.5391 16.0053C35.5391 14.8932 35.8217 14.0156 36.3878 13.3719C36.9531 12.7281 37.8114 12.4062 38.9627 12.4062C40.0157 12.4062 40.8081 12.6823 41.3401 13.2328C41.8714 13.784 42.1371 14.4936 42.1371 15.3616V16.6491H37.0611C37.1388 17.3217 37.383 17.7856 37.7929 18.0386C38.2028 18.2924 38.8266 18.419 39.6657 18.419C40.0164 18.419 40.3775 18.3849 40.7482 18.3169C41.1189 18.2488 41.4408 18.1607 41.7138 18.0535V19.224C41.4016 19.3609 41.0434 19.463 40.6387 19.5311C40.2339 19.5992 39.8026 19.6332 39.3438 19.6332H39.3423ZM37.0604 15.6102H40.7319V15.1277C40.7319 14.6498 40.6002 14.2768 40.3368 14.009C40.0734 13.7411 39.6294 13.6064 39.0057 13.6064C38.2642 13.6064 37.7552 13.767 37.477 14.0889C37.1987 14.4108 37.0604 14.9176 37.0604 15.6102Z" fill="#D1D1D1"/>
<path d="M43.3906 22.4291V12.6309H44.7654L44.8535 13.3183C45.1657 13.0356 45.5068 12.8262 45.8775 12.6893C46.2483 12.5532 46.687 12.4844 47.1939 12.4844C48.1884 12.4844 48.9638 12.7552 49.5195 13.2961C50.0752 13.837 50.3534 14.7323 50.3534 15.9806C50.3534 17.2288 50.0656 18.1627 49.4906 18.782C48.915 19.4013 48.1299 19.7106 47.1354 19.7106C46.2963 19.7106 45.5801 19.516 44.9852 19.1253V22.4284H43.3906V22.4291ZM46.7263 18.5119C48.0722 18.5119 48.7448 17.6632 48.7448 15.9665C48.7448 15.1474 48.5938 14.5643 48.2912 14.2181C47.9886 13.8718 47.4817 13.6986 46.7699 13.6986C46.0581 13.6986 45.4632 13.9428 44.9852 14.4304V17.8977C45.2094 18.0835 45.461 18.2322 45.7384 18.3439C46.0167 18.4564 46.3452 18.5119 46.7263 18.5119Z" fill="#D1D1D1"/>
<path d="M51.6133 22.4291V12.6309H52.9881L53.0761 13.3183C53.3884 13.0356 53.7295 12.8262 54.1002 12.6893C54.4709 12.5532 54.9097 12.4844 55.4165 12.4844C56.411 12.4844 57.1865 12.7552 57.7422 13.2961C58.2979 13.837 58.5761 14.7323 58.5761 15.9806C58.5761 17.2288 58.2882 18.1627 57.7133 18.782C57.1376 19.4013 56.3526 19.7106 55.3581 19.7106C54.519 19.7106 53.8028 19.516 53.2078 19.1253V22.4284H51.6133V22.4291ZM54.9489 18.5119C56.2949 18.5119 56.9674 17.6632 56.9674 15.9665C56.9674 15.1474 56.8165 14.5643 56.5139 14.2181C56.2112 13.8718 55.7044 13.6986 54.9926 13.6986C54.2807 13.6986 53.6858 13.9428 53.2078 14.4304V17.8977C53.432 18.0835 53.6836 18.2322 53.9611 18.3439C54.2393 18.4564 54.5678 18.5119 54.9489 18.5119Z" fill="#D1D1D1"/>
<path d="M63.3462 19.6332C62.1372 19.6332 61.2004 19.3358 60.5374 18.7409C59.8745 18.1459 59.543 17.2343 59.543 16.0053C59.543 14.8932 59.8256 14.0156 60.3917 13.3719C60.957 12.7281 61.8153 12.4062 62.9666 12.4062C64.0196 12.4062 64.812 12.6823 65.3441 13.2328C65.8753 13.784 66.141 14.4936 66.141 15.3616V16.6491H61.065C61.1427 17.3217 61.3869 17.7856 61.7968 18.0386C62.2067 18.2924 62.8305 18.419 63.6696 18.419C64.0203 18.419 64.3814 18.3849 64.7521 18.3169C65.1228 18.2488 65.4447 18.1607 65.7177 18.0535V19.224C65.4055 19.3609 65.0473 19.463 64.6426 19.5311C64.2379 19.5992 63.8065 19.6332 63.3477 19.6332H63.3462ZM61.0643 15.6102H64.7358V15.1277C64.7358 14.6498 64.6041 14.2768 64.3407 14.009C64.0773 13.7411 63.6333 13.6064 63.0096 13.6064C62.2681 13.6064 61.7591 13.767 61.4809 14.0889C61.2026 14.4108 61.0643 14.9176 61.0643 15.6102Z" fill="#D1D1D1"/>
<path d="M67.3984 19.4906V12.5567H68.8613L68.9493 13.361C69.2808 13.1464 69.676 12.951 70.134 12.7757C70.592 12.6003 71.0456 12.4782 71.4947 12.4102V13.6244C71.2217 13.6732 70.9264 13.7442 70.6097 13.8367C70.2931 13.9292 69.9926 14.0321 69.71 14.1438C69.4273 14.2563 69.1883 14.3702 68.993 14.4879V19.4906H67.3984Z" fill="#D1D1D1"/>
<path d="M72.3594 19.4899V12.5559H73.8222L73.8955 13.2877C74.2366 13.0147 74.6125 12.8001 75.0217 12.644C75.4316 12.4879 75.8704 12.4102 76.338 12.4102C76.8352 12.4102 77.223 12.4908 77.5012 12.6514C77.7794 12.812 77.991 13.0339 78.1375 13.3173C78.4594 13.0539 78.8301 12.8371 79.2496 12.6662C79.6692 12.496 80.1716 12.4102 80.7562 12.4102C81.556 12.4102 82.1458 12.6151 82.5261 13.0243C82.9064 13.4342 83.0966 14.0632 83.0966 14.9112V19.4899H81.5316V15.0717C81.5316 14.5353 81.4191 14.1601 81.1949 13.9455C80.9707 13.7309 80.6045 13.6237 80.0976 13.6237C79.7661 13.6237 79.4517 13.6821 79.1542 13.799C78.8567 13.9159 78.6007 14.0913 78.3861 14.3259C78.4157 14.4331 78.435 14.5456 78.4446 14.6625C78.4542 14.7795 78.4594 14.9067 78.4594 15.0429V19.4899H76.9818V15.0865C76.9818 14.5797 76.8937 14.2089 76.7183 13.9744C76.543 13.7406 76.2115 13.6237 75.7239 13.6237C75.382 13.6237 75.0579 13.7043 74.7508 13.8649C74.4438 14.0254 74.1678 14.2186 73.9243 14.4428V19.4899H72.3594Z" fill="#D1D1D1"/>
<path d="M85.3029 19.4874V13.7677H84.25L84.3965 12.5534H86.8982V19.4874H85.3037H85.3029ZM85.1712 11.1054V9.78906H86.9123V11.1054H85.1712Z" fill="#D1D1D1"/>
<path d="M88.4656 19.4899V12.5559H89.9284L90.0017 13.2877C90.3139 13.0443 90.6869 12.8371 91.1205 12.6662C91.5541 12.496 92.035 12.4102 92.5611 12.4102C93.4579 12.4102 94.112 12.6203 94.5212 13.0391C94.9311 13.4586 95.1354 14.112 95.1354 14.9992V19.4906H93.5556V15.0724C93.5556 14.536 93.4461 14.1609 93.2263 13.9463C93.0066 13.7317 92.5944 13.6244 91.9899 13.6244C91.6288 13.6244 91.2751 13.6977 90.9296 13.8442C90.5833 13.9907 90.2932 14.1808 90.0594 14.4147V19.4906H88.4648L88.4656 19.4899Z" fill="#D1D1D1"/>
<path d="M100.398 19.6352C99.6568 19.6352 99.1033 19.4376 98.7378 19.0424C98.3723 18.6473 98.1895 18.1086 98.1895 17.4257V13.7978H96.043V12.5547H102.123L102.021 13.7978H99.77V17.3376C99.77 17.7379 99.8625 18.0176 100.048 18.179C100.233 18.3395 100.536 18.4202 100.955 18.4202C101.219 18.4202 101.497 18.3713 101.789 18.2736V19.3998C101.409 19.556 100.946 19.6337 100.4 19.6337L100.398 19.6352Z" fill="#D1D1D1"/>
<path d="M31.6904 10.0703C32.4119 10.0703 33.0072 10.2074 33.4756 10.4805C33.9438 10.7535 34.2898 11.126 34.5146 11.5986C34.7388 12.0715 34.8506 12.6113 34.8506 13.2158C34.8506 14.1518 34.5606 14.9027 33.9805 15.4688C33.4004 16.0348 32.6176 16.3174 31.6328 16.3174H29.0879V19.4922H27.4932L27.4922 19.4912V10.0703H31.6904ZM29.0859 11.3125V16.3154L30.2617 15.1562H31.1973V15.1572C32.3285 15.1571 33.2549 14.2916 33.2549 13.2344C33.2546 12.1773 32.3291 11.3127 31.1973 11.3125H29.0859Z" fill="#D1D1D1"/>
<path fill-rule="evenodd" clip-rule="evenodd" d="M13.5745 4.48495C17.8015 4.31261 21.0862 7.83463 21.0862 12.0514C20.9634 18.1227 16.2202 19.9931 13.9924 19.8971H11.2229C10.7482 19.8971 10.3022 20.128 10.0276 20.5152L7.094 24.6529C6.88179 24.9016 6.4049 25.0836 6.24829 25.0836H4.27173C3.99508 25.0365 3.68189 24.7331 3.68189 24.3805V5.14511C3.68108 4.77262 3.99783 4.48506 4.30786 4.48495H13.5745ZM4.23364 4.72909C4.0339 4.72909 3.89429 4.92253 3.90552 5.1412V24.1646C3.90568 24.7759 4.23223 24.8665 4.58911 24.8267C4.95827 24.7855 5.27272 24.5378 5.48364 24.232L8.45923 19.9176C8.7326 19.5213 9.18385 19.2848 9.66528 19.2848H11.7151C16.3156 19.3773 19.3469 16.0193 19.3469 12.0064C19.3467 7.99369 15.9227 4.72909 11.7151 4.72909H4.23364Z" fill="#D1D1D1"/>
</svg>
