<svg width="39" height="39" viewBox="0 0 39 39" fill="none" xmlns="http://www.w3.org/2000/svg">
<rect x="1.31836" y="1.31885" width="36" height="36" rx="18" fill="#0A66C2"/>
<rect x="0.659038" y="0.659526" width="37.3186" height="37.3186" rx="18.6593" stroke="white" stroke-opacity="0.2" stroke-width="1.31864"/>
<rect x="0.659038" y="0.659526" width="37.3186" height="37.3186" rx="18.6593" stroke="url(#paint0_radial_630_5015)" stroke-opacity="0.7" stroke-width="1.31864"/>
<path d="M10.3438 12.7392C10.3438 12.1616 10.5459 11.6851 10.9502 11.3097C11.3545 10.9343 11.8801 10.7466 12.5269 10.7466C13.1623 10.7466 13.6763 10.9314 14.069 11.301C14.4733 11.6822 14.6755 12.1789 14.6755 12.7911C14.6755 13.3456 14.4791 13.8076 14.0863 14.1773C13.6821 14.5585 13.1507 14.7491 12.4923 14.7491H12.4749C11.8396 14.7491 11.3256 14.5585 10.9329 14.1773C10.5401 13.7961 10.3438 13.3167 10.3438 12.7392ZM10.569 27.9001V16.3258H14.4156V27.9001H10.569ZM16.5468 27.9001H20.3933V21.4372C20.3933 21.0329 20.4395 20.721 20.5319 20.5016C20.6936 20.1088 20.9391 19.7767 21.2683 19.5053C21.5975 19.2338 22.0105 19.0981 22.5072 19.0981C23.8009 19.0981 24.4478 19.9702 24.4478 21.7145V27.9001H28.2943V21.264C28.2943 19.5544 27.89 18.2578 27.0815 17.3741C26.2729 16.4904 25.2044 16.0486 23.876 16.0486C22.3859 16.0486 21.225 16.6897 20.3933 17.9719V18.0065H20.376L20.3933 17.9719V16.3258H16.5468C16.5698 16.6955 16.5814 17.8448 16.5814 19.7739C16.5814 21.7029 16.5698 24.4117 16.5468 27.9001Z" fill="white"/>
<defs>
<radialGradient id="paint0_radial_630_5015" cx="0" cy="0" r="1" gradientUnits="userSpaceOnUse" gradientTransform="translate(6.48668 1.31885) scale(10.2772 12.3745)">
<stop stop-color="white" stop-opacity="0.6"/>
<stop offset="1" stop-color="white" stop-opacity="0"/>
</radialGradient>
</defs>
</svg>
