<svg viewBox="0 0 68 68" fill="none" xmlns="http://www.w3.org/2000/svg">
<mask id="path-1-inside-1_630_4314" fill="white">
<path d="M11.1348 40.0918C19.0964 34.8219 31.9876 34.8219 39.8926 40.0918C43.4625 42.4718 45.4179 45.7016 45.4463 49.1865C45.4463 52.6998 43.4625 55.9296 39.8926 58.3379C35.9259 61.0012 30.7124 62.333 25.499 62.333C20.2858 62.3329 15.073 61.0011 11.1064 58.3379C7.53645 55.9579 5.55273 52.7282 5.55273 49.2432C5.5528 45.7582 7.53649 42.5001 11.1348 40.0918ZM25.499 5.66699C32.9223 5.66699 38.958 11.7017 38.958 19.125C38.9297 26.4065 33.2346 32.2995 25.9814 32.5547H25.7822C25.6123 32.5264 25.3856 32.5264 25.1592 32.5547C17.7359 32.2996 12.041 26.4066 12.041 19.125C12.041 11.7018 18.0758 5.66717 25.499 5.66699Z"/>
</mask>
<path d="M11.1348 40.0918C19.0964 34.8219 31.9876 34.8219 39.8926 40.0918C43.4625 42.4718 45.4179 45.7016 45.4463 49.1865C45.4463 52.6998 43.4625 55.9296 39.8926 58.3379C35.9259 61.0012 30.7124 62.333 25.499 62.333C20.2858 62.3329 15.073 61.0011 11.1064 58.3379C7.53645 55.9579 5.55273 52.7282 5.55273 49.2432C5.5528 45.7582 7.53649 42.5001 11.1348 40.0918ZM25.499 5.66699C32.9223 5.66699 38.958 11.7017 38.958 19.125C38.9297 26.4065 33.2346 32.2995 25.9814 32.5547H25.7822C25.6123 32.5264 25.3856 32.5264 25.1592 32.5547C17.7359 32.2996 12.041 26.4066 12.041 19.125C12.041 11.7018 18.0758 5.66717 25.499 5.66699Z" fill="url(#paint0_linear_630_4314)"/>
<path d="M11.1348 40.0918L10.5828 39.2579L10.5786 39.2608L11.1348 40.0918ZM39.8926 40.0918L40.4473 39.2597L39.8926 40.0918ZM45.4463 49.1865H46.4463L46.4463 49.1784L45.4463 49.1865ZM39.8926 58.3379L40.45 59.1681L40.4518 59.1669L39.8926 58.3379ZM25.499 62.333L25.499 63.333H25.499V62.333ZM11.1064 58.3379L11.6639 57.5077L11.6611 57.5058L11.1064 58.3379ZM5.55273 49.2432L4.55273 49.2431V49.2432H5.55273ZM25.499 5.66699V4.66699H25.499L25.499 5.66699ZM38.958 19.125L39.958 19.1289V19.125L38.958 19.125ZM25.9814 32.5547V33.5547H25.999L26.0166 33.5541L25.9814 32.5547ZM25.7822 32.5547L25.6182 33.5412L25.6997 33.5547H25.7822V32.5547ZM25.1592 32.5547L25.1248 33.5541L25.2043 33.5568L25.2832 33.547L25.1592 32.5547ZM12.041 19.125L11.041 19.125V19.125H12.041ZM11.1348 40.0918L11.6867 40.9257C15.4709 38.4209 20.4815 37.1394 25.5349 37.1394C30.5887 37.1394 35.5835 38.421 39.3379 40.9238L39.8926 40.0918L40.4473 39.2597C36.2967 36.4927 30.8934 35.1394 25.5349 35.1394C20.1762 35.1394 14.7603 36.4928 10.5828 39.2579L11.1348 40.0918ZM39.8926 40.0918L39.3379 40.9238C42.7001 43.1654 44.4212 46.1154 44.4463 49.1947L45.4463 49.1865L46.4463 49.1784C46.4146 45.2877 44.2249 41.7782 40.4473 39.2597L39.8926 40.0918ZM45.4463 49.1865H44.4463C44.4463 52.2844 42.7045 55.2347 39.3333 57.5089L39.8926 58.3379L40.4518 59.1669C44.2205 56.6245 46.4463 53.1153 46.4463 49.1865H45.4463ZM39.8926 58.3379L39.3351 57.5077C35.5667 60.0379 30.5582 61.333 25.499 61.333V62.333V63.333C30.8665 63.333 36.2851 61.9645 40.45 59.1681L39.8926 58.3379ZM25.499 62.333L25.499 61.333C20.44 61.3329 15.4322 60.0378 11.6639 57.5077L11.1064 58.3379L10.549 59.1681C14.7138 61.9644 20.1317 63.3329 25.499 63.333L25.499 62.333ZM11.1064 58.3379L11.6611 57.5058C8.29315 55.2605 6.55273 52.3116 6.55273 49.2432H5.55273H4.55273C4.55273 53.1447 6.77974 56.6553 10.5517 59.1699L11.1064 58.3379ZM5.55273 49.2432L6.55273 49.2432C6.55279 46.1735 8.29463 43.196 11.691 40.9228L11.1348 40.0918L10.5786 39.2608C6.77834 41.8042 4.5528 45.343 4.55273 49.2431L5.55273 49.2432ZM25.499 5.66699V6.66699C32.3702 6.66699 37.958 12.2541 37.958 19.125L38.958 19.125L39.958 19.125C39.958 11.1493 33.4745 4.66699 25.499 4.66699V5.66699ZM38.958 19.125L37.958 19.1211C37.9318 25.8683 32.6599 31.3191 25.9463 31.5553L25.9814 32.5547L26.0166 33.5541C33.8092 33.2799 39.9276 26.9447 39.958 19.1289L38.958 19.125ZM25.9814 32.5547V31.5547H25.7822V32.5547V33.5547H25.9814V32.5547ZM25.7822 32.5547L25.9462 31.5682C25.6561 31.52 25.3286 31.5257 25.0351 31.5624L25.1592 32.5547L25.2832 33.547C25.4426 33.527 25.5684 33.5329 25.6182 33.5412L25.7822 32.5547ZM25.1592 32.5547L25.1935 31.5553C18.3018 31.3185 13.041 25.8606 13.041 19.125H12.041H11.041C11.041 26.9526 17.1701 33.2807 25.1248 33.5541L25.1592 32.5547ZM12.041 19.125L13.041 19.125C13.041 12.2541 18.6281 6.66716 25.499 6.66699L25.499 5.66699L25.499 4.66699C17.5236 4.66718 11.041 11.1495 11.041 19.125L12.041 19.125Z" fill="url(#paint1_linear_630_4314)" mask="url(#path-1-inside-1_630_4314)"/>
<path d="M39.6387 36.2382C45.9003 34.4249 53.7771 35.6437 58.6221 39.5537C61.2285 41.6502 62.5605 44.285 62.3057 47.0048C62.079 49.7532 60.3217 52.133 57.375 53.748C54.5418 55.3063 50.9722 56.0439 47.4307 55.9589C49.4707 54.1173 50.6601 51.8214 50.8867 49.3847C51.1699 45.8715 49.4985 42.5001 46.1553 39.8085C44.2569 38.3069 42.047 37.1166 39.6387 36.2382ZM45.6455 11.5312C51.1987 11.0497 56.157 15.1869 56.6387 20.7968C57.0919 26.2933 53.1819 31.1099 47.7705 31.7617H47.6289C47.4589 31.7617 47.2882 31.7616 47.1465 31.8183C44.3983 31.9599 41.8768 31.0816 39.9785 29.4667C42.8968 26.8601 44.5685 22.9501 44.2285 18.7001C44.0302 16.4052 43.2368 14.3084 42.0469 12.5234C43.1235 11.9851 44.3705 11.6445 45.6455 11.5312Z" fill="url(#paint2_linear_630_4314)"/>
<defs>
<linearGradient id="paint0_linear_630_4314" x1="17.9993" y1="10.8934" x2="35.499" y2="62.3936" gradientUnits="userSpaceOnUse">
<stop stop-color="#6DCCFF"/>
<stop offset="1" stop-color="#1A57C9"/>
</linearGradient>
<linearGradient id="paint1_linear_630_4314" x1="7.99908" y1="13.3934" x2="41.4988" y2="62.3941" gradientUnits="userSpaceOnUse">
<stop stop-color="white"/>
<stop offset="0.537589" stop-color="white" stop-opacity="0"/>
</linearGradient>
<linearGradient id="paint2_linear_630_4314" x1="44.4992" y1="18.8935" x2="55.0729" y2="26.786" gradientUnits="userSpaceOnUse">
<stop stop-color="#0C97E2"/>
<stop offset="1" stop-color="#0A327D"/>
</linearGradient>
</defs>
</svg>
