<svg viewBox="0 0 72 75" fill="none" xmlns="http://www.w3.org/2000/svg">
<g filter="url(#filter0_f_630_4296)">
<ellipse cx="50.3496" cy="20" rx="9.5" ry="8" fill="white"/>
</g>
<mask id="path-2-inside-1_630_4296" fill="white">
<path d="M50.333 40.9834L25.9248 65.4063C25.502 65.8284 24.9563 66.1066 24.3663 66.2002L8.94047 68.6455C8.49845 68.716 8.04594 68.681 7.62016 68.543C7.19426 68.4049 6.80687 68.1672 6.49027 67.8506C6.17387 67.5342 5.93701 67.1473 5.79887 66.7217C5.66073 66.2958 5.62484 65.8426 5.69535 65.4004L8.14164 49.9893C8.23523 49.3992 8.51247 48.8535 8.93461 48.4307L33.3584 24.0088L50.333 40.9834ZM50.3291 12C52.7014 11.9995 55.0207 12.702 56.9942 14.0186C58.9696 15.3365 60.5099 17.211 61.42 19.4043C62.3299 21.5976 62.5685 24.0117 62.1065 26.3409C61.6444 28.6699 60.5024 30.8095 58.8243 32.4893L54.3399 36.9746L37.3663 20.001L41.8516 15.5166C42.9624 14.3978 44.2848 13.5109 45.7412 12.9073C47.1956 12.3045 48.7549 11.996 50.3291 12Z"/>
</mask>
<path d="M50.333 40.9834L25.9248 65.4063C25.502 65.8284 24.9563 66.1066 24.3663 66.2002L8.94047 68.6455C8.49845 68.716 8.04594 68.681 7.62016 68.543C7.19426 68.4049 6.80687 68.1672 6.49027 67.8506C6.17387 67.5342 5.93701 67.1473 5.79887 66.7217C5.66073 66.2958 5.62484 65.8426 5.69535 65.4004L8.14164 49.9893C8.23523 49.3992 8.51247 48.8535 8.93461 48.4307L33.3584 24.0088L50.333 40.9834ZM50.3291 12C52.7014 11.9995 55.0207 12.702 56.9942 14.0186C58.9696 15.3365 60.5099 17.211 61.42 19.4043C62.3299 21.5976 62.5685 24.0117 62.1065 26.3409C61.6444 28.6699 60.5024 30.8095 58.8243 32.4893L54.3399 36.9746L37.3663 20.001L41.8516 15.5166C42.9624 14.3978 44.2848 13.5109 45.7412 12.9073C47.1956 12.3045 48.7549 11.996 50.3291 12Z" fill="url(#paint0_linear_630_4296)"/>
<path d="M50.333 40.9834L51.0404 41.6903L51.747 40.9832L51.0402 40.2763L50.333 40.9834ZM25.9248 65.4063L26.6314 66.114L26.6322 66.1132L25.9248 65.4063ZM24.3663 66.2002L24.5228 67.1879L24.5229 67.1879L24.3663 66.2002ZM8.94047 68.6455L8.7839 67.6579L8.783 67.658L8.94047 68.6455ZM7.62016 68.543L7.31165 69.4942L7.31176 69.4943L7.62016 68.543ZM6.49027 67.8506L5.78313 68.5577L5.78317 68.5577L6.49027 67.8506ZM5.79887 66.7217L4.84765 67.0302L4.84771 67.0304L5.79887 66.7217ZM5.69535 65.4004L6.68287 65.5579L6.68299 65.5572L5.69535 65.4004ZM8.14164 49.9893L9.12928 50.1461L9.1293 50.1459L8.14164 49.9893ZM8.93461 48.4307L8.22753 47.7236L8.22692 47.7242L8.93461 48.4307ZM33.3584 24.0088L34.0655 23.3017L33.3585 22.5946L32.6514 23.3017L33.3584 24.0088ZM50.3291 12L50.3266 13L50.3294 13L50.3291 12ZM56.9942 14.0186L57.5492 13.1867L57.5492 13.1867L56.9942 14.0186ZM61.42 19.4043L62.3436 19.0211L62.3436 19.0211L61.42 19.4043ZM62.1065 26.3409L63.0874 26.5355L63.0874 26.5354L62.1065 26.3409ZM58.8243 32.4893L59.5314 33.1963L59.5317 33.1961L58.8243 32.4893ZM54.3399 36.9746L53.6328 37.6818L54.34 38.3889L55.0471 37.6817L54.3399 36.9746ZM37.3663 20.001L36.6592 19.2938L35.952 20.0009L36.6591 20.7081L37.3663 20.001ZM41.8516 15.5166L42.5586 16.2238L42.5613 16.2212L41.8516 15.5166ZM45.7412 12.9073L45.3584 11.9835L45.3583 11.9835L45.7412 12.9073ZM50.333 40.9834L49.6257 40.2765L25.2175 64.6994L25.9248 65.4063L26.6322 66.1132L51.0404 41.6903L50.333 40.9834ZM25.9248 65.4063L25.2183 64.6986C24.9444 64.9721 24.5911 65.1521 24.2096 65.2126L24.3663 66.2002L24.5229 67.1879C25.3216 67.0612 26.0596 66.6848 26.6314 66.114L25.9248 65.4063ZM24.3663 66.2002L24.2097 65.2126L8.7839 67.6579L8.94047 68.6455L9.09704 69.6332L24.5228 67.1879L24.3663 66.2002ZM8.94047 68.6455L8.783 67.658C8.49659 67.7037 8.20374 67.681 7.92855 67.5917L7.62016 68.543L7.31176 69.4943C7.88814 69.6811 8.50031 69.7284 9.09794 69.6331L8.94047 68.6455ZM7.62016 68.543L7.92867 67.5918C7.65356 67.5026 7.40264 67.3488 7.19738 67.1435L6.49027 67.8506L5.78317 68.5577C6.2111 68.9857 6.73496 69.3072 7.31165 69.4942L7.62016 68.543ZM6.49027 67.8506L7.19742 67.1436C6.99275 66.9389 6.83946 66.6886 6.75002 66.413L5.79887 66.7217L4.84771 67.0304C5.03456 67.6061 5.35499 68.1295 5.78313 68.5577L6.49027 67.8506ZM5.79887 66.7217L6.75009 66.4132C6.66042 66.1367 6.63739 65.8432 6.68287 65.5579L5.69535 65.4004L4.70783 65.243C4.6123 65.842 4.66105 66.4549 4.84765 67.0302L5.79887 66.7217ZM5.69535 65.4004L6.68299 65.5572L9.12928 50.1461L8.14164 49.9893L7.15401 49.8325L4.70772 65.2437L5.69535 65.4004ZM8.14164 49.9893L9.1293 50.1459C9.18995 49.7635 9.36954 49.4104 9.6423 49.1372L8.93461 48.4307L8.22692 47.7242C7.6554 48.2966 7.2805 49.0349 7.15398 49.8327L8.14164 49.9893ZM8.93461 48.4307L9.64169 49.1378L34.0655 24.716L33.3584 24.0088L32.6514 23.3017L8.22753 47.7236L8.93461 48.4307ZM33.3584 24.0088L32.6513 24.7159L49.6259 41.6905L50.333 40.9834L51.0402 40.2763L34.0655 23.3017L33.3584 24.0088ZM50.3291 12L50.3294 13C52.5039 12.9996 54.6301 13.6435 56.4392 14.8505L56.9942 14.0186L57.5492 13.1867C55.4113 11.7605 52.8988 10.9995 50.3289 11L50.3291 12ZM56.9942 14.0186L56.4392 14.8505C58.25 16.0586 59.662 17.7769 60.4963 19.7876L61.42 19.4043L62.3436 19.0211C61.3577 16.6451 59.6891 14.6144 57.5492 13.1867L56.9942 14.0186ZM61.42 19.4043L60.4963 19.7876C61.3304 21.798 61.5492 24.011 61.1256 26.1463L62.1065 26.3409L63.0874 26.5354C63.5879 24.0124 63.3295 21.3972 62.3436 19.0211L61.42 19.4043ZM62.1065 26.3409L61.1256 26.1463C60.702 28.2813 59.6551 30.2428 58.1168 31.7825L58.8243 32.4893L59.5317 33.1961C61.3497 31.3763 62.5868 29.0584 63.0874 26.5355L62.1065 26.3409ZM58.8243 32.4893L58.1171 31.7823L53.6327 36.2676L54.3399 36.9746L55.0471 37.6817L59.5314 33.1963L58.8243 32.4893ZM54.3399 36.9746L55.047 36.2675L38.0734 19.2939L37.3663 20.001L36.6591 20.7081L53.6328 37.6818L54.3399 36.9746ZM37.3663 20.001L38.0733 20.7082L42.5586 16.2238L41.8516 15.5166L41.1446 14.8095L36.6592 19.2938L37.3663 20.001ZM41.8516 15.5166L42.5613 16.2212C43.5786 15.1965 44.7899 14.3841 46.1242 13.8311L45.7412 12.9073L45.3583 11.9835C43.7797 12.6378 42.3462 13.5992 41.1419 14.8121L41.8516 15.5166ZM45.7412 12.9073L46.1241 13.8311C47.4564 13.2789 48.8847 12.9963 50.3266 13L50.3291 12L50.3317 11C48.6251 10.9957 46.9348 11.3301 45.3584 11.9835L45.7412 12.9073Z" fill="url(#paint1_linear_630_4296)" mask="url(#path-2-inside-1_630_4296)"/>
<defs>
<filter id="filter0_f_630_4296" x="28.8496" y="0" width="43" height="40" filterUnits="userSpaceOnUse" color-interpolation-filters="sRGB">
<feFlood flood-opacity="0" result="BackgroundImageFix"/>
<feBlend mode="normal" in="SourceGraphic" in2="BackgroundImageFix" result="shape"/>
<feGaussianBlur stdDeviation="6" result="effect1_foregroundBlur_630_4296"/>
</filter>
<linearGradient id="paint0_linear_630_4296" x1="23.3428" y1="17.2278" x2="36.3458" y2="71.5787" gradientUnits="userSpaceOnUse">
<stop stop-color="#6DCCFF"/>
<stop offset="1" stop-color="#1A57C9"/>
</linearGradient>
<linearGradient id="paint1_linear_630_4296" x1="9.13563" y1="19.7284" x2="37.2428" y2="78.1212" gradientUnits="userSpaceOnUse">
<stop stop-color="white"/>
<stop offset="0.537589" stop-color="white" stop-opacity="0"/>
</linearGradient>
</defs>
</svg>
