<svg viewBox="0 0 72 73" fill="none" xmlns="http://www.w3.org/2000/svg">
<g filter="url(#filter0_f_630_4305)">
<ellipse cx="24.8546" cy="22.1218" rx="14.5372" ry="7.5" transform="rotate(-33.0773 24.8546 22.1218)" fill="white"/>
</g>
<path d="M37.8213 10.985C53.1969 10.9852 65.6611 23.4501 65.6611 38.8258C65.6609 54.2013 53.1968 66.6654 37.8213 66.6656C22.4456 66.6656 9.9807 54.2014 9.98047 38.8258C9.98047 23.45 22.4455 10.985 37.8213 10.985Z" fill="url(#paint0_linear_630_4305)" stroke="url(#paint1_linear_630_4305)"/>
<path d="M50.418 36.7609C51.3802 35.2904 51.9174 33.4844 51.7652 31.5917C51.4133 27.2131 47.2603 23.6517 42.8534 24.006L40.3674 24.2058L40.0473 20.2226C39.9542 19.0644 38.9165 18.1812 37.7583 18.2743C36.6 18.3674 35.7168 19.405 35.8099 20.5633L36.1323 24.5747L33.3639 24.7972L32.7142 24.8494L32.3917 20.838C32.2986 19.6798 31.2609 18.7965 30.1027 18.8896C28.9445 18.9827 28.1177 20.0159 28.2108 21.1741L28.5333 25.1855L27.5728 25.2627L22.6857 25.6555C21.5274 25.7486 20.6442 26.7863 20.7373 27.9445C20.8304 29.1027 21.8681 29.986 23.0263 29.8929L25.7947 29.6704L26.6076 39.7836L27.4206 49.8969L24.6521 50.1194C23.4939 50.2125 22.6106 51.2502 22.7037 52.4084C22.7968 53.5666 23.8345 54.4499 24.9927 54.3568L29.8799 53.964L30.8121 53.889L31.1345 57.9004C31.2276 59.0586 32.2653 59.9419 33.4235 59.8488C34.5818 59.7557 35.465 58.718 35.3719 57.5598L35.0495 53.5484L35.6992 53.4962L38.4676 53.2736L38.7901 57.285C38.8832 58.4433 39.9209 59.3265 41.0791 59.2334C42.2373 59.1403 43.1206 58.1027 43.0275 56.9444L42.705 52.933L47.3662 52.5584C52.3945 52.1542 56.1932 48.1243 55.8276 43.5761C55.5778 40.4687 53.3824 37.9157 50.418 36.7609ZM33.7328 29.0323L43.2245 28.2693C45.4845 28.0877 47.4085 30.0938 47.5584 31.9583C47.7355 34.1617 46.0728 36.115 43.8694 36.2921L30.677 37.3526L30.0321 29.3298L33.7328 29.0323ZM47.0256 48.321L35.3586 49.2588L31.6579 49.5563L31.0153 41.5617L44.2077 40.5013L46.3829 40.3264C49.0666 40.1107 51.4154 41.7415 51.5925 43.945C51.7696 46.1484 49.7092 48.1053 47.0256 48.321Z" fill="black"/>
<defs>
<filter id="filter0_f_630_4305" x="0" y="0" width="49.709" height="44.2436" filterUnits="userSpaceOnUse" color-interpolation-filters="sRGB">
<feFlood flood-opacity="0" result="BackgroundImageFix"/>
<feBlend mode="normal" in="SourceGraphic" in2="BackgroundImageFix" result="shape"/>
<feGaussianBlur stdDeviation="6" result="effect1_foregroundBlur_630_4305"/>
</filter>
<linearGradient id="paint0_linear_630_4305" x1="27.1646" y1="15.7127" x2="40.1666" y2="70.0639" gradientUnits="userSpaceOnUse">
<stop stop-color="#6DCCFF"/>
<stop offset="1" stop-color="#1A57C9"/>
</linearGradient>
<linearGradient id="paint1_linear_630_4305" x1="12.9562" y1="18.2134" x2="41.0617" y2="76.608" gradientUnits="userSpaceOnUse">
<stop stop-color="white"/>
<stop offset="0.537589" stop-color="white" stop-opacity="0"/>
</linearGradient>
</defs>
</svg>
